# xmcd
#
# Track frame offsets:
#	150
#	12442
#	25592
#	44348
#	62072
#	74586
#	83396
#	99865
#	116213
#	130455
#	146801
#	163604
#	177420
#
# Disc length: 2557 seconds
# Revision: 0
# Processed by: cddbd v1.5.2PL0 Copyright (c) Steve Scherf et al.
# Submitted via: dBpowerAMP V12.0
#
DISCID=b109fb0d
DTITLE=Lonesome River Band - Mayhayley's House
DYEAR=2017
DGENRE=Country
TTITLE0=Wrong Road Again
TTITLE1=As Lonesome as I Am
TTITLE2=Mayhayley's House
TTITLE3=Old Coyote Town
TTITLE4=Blackbirds and Crows
TTITLE5=Ida Red
TTITLE6=Diggin'
TTITLE7=As the Crow Flies
TTITLE8=Lonesome Bone
TTITLE9=I Think I'm Gonna Be Alright
TTITLE10=It Feels Real Good Goin' Down
TTITLE11=Hickory Hollow Times and County News
TTITLE12=Fly Around My Pretty Little Miss
EXTD=
EXTT0=
EXTT1=
EXTT2=
EXTT3=
EXTT4=
EXTT5=
EXTT6=
EXTT7=
EXTT8=
EXTT9=
EXTT10=
EXTT11=
EXTT12=
PLAYORDER=
